<svg id="Ebene_1" data-name="Ebene 1" xmlns="http://www.w3.org/2000/svg" xmlns:xlink="http://www.w3.org/1999/xlink" viewBox="0 0 150 150"><defs><style>.cls-1{fill:#e30613;}.cls-2,.cls-3,.cls-4{fill-rule:evenodd;}.cls-2{fill:url(#Unbenannter_Verlauf_21);}.cls-3{fill:url(#Unbenannter_Verlauf_21-2);}.cls-4{fill:url(#Unbenannter_Verlauf_21-3);}</style><linearGradient id="Unbenannter_Verlauf_21" x1="78.9" y1="105.68" x2="106.93" y2="105.68" gradientUnits="userSpaceOnUse"><stop offset="0" stop-color="#fff"/><stop offset="0.57" stop-color="#f3f3f4"/><stop offset="1" stop-color="#e2e1e0"/></linearGradient><linearGradient id="Unbenannter_Verlauf_21-2" x1="75" y1="96.27" x2="75" y2="40.38" xlink:href="#Unbenannter_Verlauf_21"/><linearGradient id="Unbenannter_Verlauf_21-3" x1="43.07" y1="105.68" x2="71.1" y2="105.68" xlink:href="#Unbenannter_Verlauf_21"/></defs><title>raabit_din_zertifiziert_icon_footer</title><circle class="cls-1" cx="75" cy="75" r="75"/><path class="cls-2" d="M97.11,91.8l-1.21.08L95,94.76a7.34,7.34,0,0,1-9.74,4.71l-2.82-1.11-2,2.21a7.18,7.18,0,0,1-1.51,1.25l9.85,17.06a1.37,1.37,0,0,0,1.36.68,1.35,1.35,0,0,0,1.15-1l2.6-9.67a1.37,1.37,0,0,1,1.67-1l9.68,2.6a1.36,1.36,0,0,0,1.53-2Z"/><path class="cls-3" d="M104.92,61a2.78,2.78,0,0,0,.44-2.29,2.75,2.75,0,0,0-1.4-1.88l-3.13-1.8a3,3,0,0,1-.94-.86C91,62.85,80,74.55,75.74,82.42c0-2.24-15.92-17.88-15.92-17.88V62.3l15.92,7.45c4.45-4.68,15.29-13.36,24-20l.2-1.29a2.91,2.91,0,0,0-2.67-3.34l-3.61-.26a2.88,2.88,0,0,1-2.58-2.06L90,39.39a2.78,2.78,0,0,0-1.52-1.78,2.85,2.85,0,0,0-2.34-.08l-3.36,1.33a2.85,2.85,0,0,1-3.21-.73l-2.46-2.66a2.91,2.91,0,0,0-4.28,0L70.4,38.13a2.86,2.86,0,0,1-3.22.73l-3.36-1.33A2.91,2.91,0,0,0,60,39.39l-1.05,3.46a2.89,2.89,0,0,1-2.58,2.06l-3.61.26a2.91,2.91,0,0,0-2.67,3.34l.54,3.59a2.86,2.86,0,0,1-1.42,3L46,56.87a2.73,2.73,0,0,0-1.39,1.88A2.78,2.78,0,0,0,45.08,61l2,3a2.82,2.82,0,0,1,0,3.29l-2,3a2.92,2.92,0,0,0,1,4.18l3.14,1.79a2.86,2.86,0,0,1,1.42,3l-.54,3.58a2.85,2.85,0,0,0,.6,2.25,2.81,2.81,0,0,0,2.07,1.09l3.61.27a2.85,2.85,0,0,1,2.58,2L60,92a2.84,2.84,0,0,0,1.53,1.77,2.79,2.79,0,0,0,2.33.09l3.36-1.33a2.86,2.86,0,0,1,3.22.73l2.46,2.66a2.91,2.91,0,0,0,4.28,0l2.46-2.66a2.85,2.85,0,0,1,3.21-.73l3.36,1.33a2.81,2.81,0,0,0,2.34-.09A2.76,2.76,0,0,0,90,92l1.06-3.46a2.88,2.88,0,0,1,2.58-2.06l3.61-.26A2.91,2.91,0,0,0,100,82.84l-.54-3.58a2.86,2.86,0,0,1,1.42-3L104,74.49a2.91,2.91,0,0,0,1-4.18l-2-3a2.87,2.87,0,0,1,0-3.29Z"/><path class="cls-4" d="M69.58,100.57l-2-2.21-2.79,1.1A7.48,7.48,0,0,1,62,100,7.44,7.44,0,0,1,55,94.75l-.87-2.86-1.21-.09-9.64,16.69a1.38,1.38,0,0,0,.1,1.52,1.34,1.34,0,0,0,1.44.49l9.67-2.6a1.38,1.38,0,0,1,1.68,1l2.59,9.67a1.37,1.37,0,0,0,2.52.33l9.85-17.06A7.18,7.18,0,0,1,69.58,100.57Z"/></svg>