<svg id="Ebene_1" data-name="Ebene 1" xmlns="http://www.w3.org/2000/svg" xmlns:xlink="http://www.w3.org/1999/xlink" viewBox="0 0 150 150"><defs><style>.cls-1{fill:#e00c19;}.cls-2{fill:url(#Unbenannter_Verlauf_2);}</style><linearGradient id="Unbenannter_Verlauf_2" x1="47.35" y1="75" x2="102.65" y2="75" gradientUnits="userSpaceOnUse"><stop offset="0" stop-color="#fff"/><stop offset="1" stop-color="#e1e0de"/></linearGradient></defs><title>raabit_support_icon_mail</title><circle class="cls-1" cx="75" cy="75" r="75"/><path class="cls-2" d="M47.35,77.94c0-19,14-31.52,31-31.52,14.82,0,24.31,10.15,24.31,24.44,0,12.42-8.55,18.56-15.9,18.56-3.94,0-7.21-1.87-8-5.07H78.6a10.49,10.49,0,0,1-8,4.41c-5.47,0-9.08-4.14-9.08-10.29,0-8.54,6.14-16.69,13.76-16.69a5,5,0,0,1,4.94,3.34h.13l1.07-2.81h7L85.15,77.54c-.8,3.34.13,4.94,2.8,4.94,4,0,7.62-4.54,7.62-11.35,0-9.08-4.68-17.9-18.17-17.9C66.19,53.23,55,62.85,55,77.67c0,13.22,9.34,19.1,19.36,19.1a24.53,24.53,0,0,0,9.88-2.4l2.41,6.14a28,28,0,0,1-13.22,3.07C59.91,103.58,47.35,95.57,47.35,77.94ZM76.87,79l1.47-8.42A3,3,0,0,0,75.67,69c-3.48,0-5.61,5.21-5.61,8.81,0,2.48,1.07,3.88,3.07,3.88C74.33,81.68,75.4,81,76.87,79Z"/></svg>