<svg id="Ebene_1" data-name="Ebene 1" xmlns="http://www.w3.org/2000/svg" xmlns:xlink="http://www.w3.org/1999/xlink" viewBox="0 0 320 320"><defs><style>.cls-1{fill:none;}.cls-2{fill:url(#Unbenannter_Verlauf_28);}.cls-3{fill:url(#Unbenannter_Verlauf_28-2);}.cls-4{fill:url(#Unbenannter_Verlauf_28-3);}.cls-5{fill:url(#Unbenannter_Verlauf_28-4);}.cls-6{fill:url(#Unbenannter_Verlauf_28-5);}.cls-7{fill:url(#Unbenannter_Verlauf_5);}.cls-8{fill:url(#Unbenannter_Verlauf_28-6);}.cls-9{fill-rule:evenodd;fill:url(#Unbenannter_Verlauf_28-7);}.cls-10{fill:url(#Unbenannter_Verlauf_28-8);}.cls-11{fill:url(#Unbenannter_Verlauf_28-9);}.cls-12{fill:url(#Unbenannter_Verlauf_28-10);}.cls-13{fill:url(#Unbenannter_Verlauf_28-11);}.cls-14{fill:url(#Unbenannter_Verlauf_28-12);}.cls-15{fill:url(#Unbenannter_Verlauf_28-13);}.cls-16{fill:url(#Unbenannter_Verlauf_6);}.cls-17{fill:url(#Unbenannter_Verlauf_22);}.cls-18{fill:url(#Unbenannter_Verlauf_22-2);}.cls-19{fill:url(#Unbenannter_Verlauf_22-3);}.cls-20{fill:url(#Unbenannter_Verlauf_22-4);}.cls-21{fill:url(#Unbenannter_Verlauf_22-5);}.cls-22{fill:url(#Unbenannter_Verlauf_22-6);}.cls-23{fill:url(#Unbenannter_Verlauf_22-7);}.cls-24{fill:url(#Unbenannter_Verlauf_22-8);}</style><linearGradient id="Unbenannter_Verlauf_28" x1="129.17" y1="26.77" x2="107.95" y2="55.07" gradientUnits="userSpaceOnUse"><stop offset="0" stop-color="#fff"/><stop offset="1" stop-color="#e1e0de"/></linearGradient><linearGradient id="Unbenannter_Verlauf_28-2" x1="132.45" y1="29.23" x2="111.23" y2="57.53" xlink:href="#Unbenannter_Verlauf_28"/><linearGradient id="Unbenannter_Verlauf_28-3" x1="128.83" y1="26.51" x2="107.61" y2="54.81" xlink:href="#Unbenannter_Verlauf_28"/><linearGradient id="Unbenannter_Verlauf_28-4" x1="206.69" y1="27.02" x2="191.57" y2="41.17" xlink:href="#Unbenannter_Verlauf_28"/><linearGradient id="Unbenannter_Verlauf_28-5" x1="212.65" y1="33.4" x2="197.54" y2="47.55" xlink:href="#Unbenannter_Verlauf_28"/><radialGradient id="Unbenannter_Verlauf_5" cx="280" cy="40" r="15.69" gradientUnits="userSpaceOnUse"><stop offset="0" stop-color="#e1e0de"/><stop offset="1" stop-color="#fff"/></radialGradient><linearGradient id="Unbenannter_Verlauf_28-6" x1="49.15" y1="30.86" x2="26.64" y2="53.05" xlink:href="#Unbenannter_Verlauf_28"/><linearGradient id="Unbenannter_Verlauf_28-7" x1="128.41" y1="109.9" x2="113.94" y2="127.27" xlink:href="#Unbenannter_Verlauf_28"/><linearGradient id="Unbenannter_Verlauf_28-8" x1="43.1" y1="100.93" x2="30.23" y2="124.08" xlink:href="#Unbenannter_Verlauf_28"/><linearGradient id="Unbenannter_Verlauf_28-9" x1="45.78" y1="102.42" x2="32.92" y2="125.58" xlink:href="#Unbenannter_Verlauf_28"/><linearGradient id="Unbenannter_Verlauf_28-10" x1="48.47" y1="103.92" x2="35.61" y2="127.07" xlink:href="#Unbenannter_Verlauf_28"/><linearGradient id="Unbenannter_Verlauf_28-11" x1="54" y1="106.99" x2="41.14" y2="130.14" xlink:href="#Unbenannter_Verlauf_28"/><linearGradient id="Unbenannter_Verlauf_28-12" x1="270.92" y1="128.57" x2="288.46" y2="106.69" xlink:href="#Unbenannter_Verlauf_28"/><linearGradient id="Unbenannter_Verlauf_28-13" x1="287.44" y1="108.85" x2="272.35" y2="125.98" xlink:href="#Unbenannter_Verlauf_28"/><radialGradient id="Unbenannter_Verlauf_6" cx="40" cy="200" r="12.71" xlink:href="#Unbenannter_Verlauf_28"/><linearGradient id="Unbenannter_Verlauf_22" x1="186.82" y1="120" x2="213.18" y2="120" gradientUnits="userSpaceOnUse"><stop offset="0" stop-color="#fff"/><stop offset="1" stop-color="#e2e1df"/></linearGradient><linearGradient id="Unbenannter_Verlauf_22-2" x1="195.7" y1="114.23" x2="210.9" y2="114.23" xlink:href="#Unbenannter_Verlauf_22"/><linearGradient id="Unbenannter_Verlauf_22-3" x1="204.21" y1="122.47" x2="210.9" y2="122.47" xlink:href="#Unbenannter_Verlauf_22"/><linearGradient id="Unbenannter_Verlauf_22-4" x1="190.19" y1="115.45" x2="196.46" y2="115.45" xlink:href="#Unbenannter_Verlauf_22"/><linearGradient id="Unbenannter_Verlauf_22-5" x1="201.96" y1="126.13" x2="209.43" y2="126.13" xlink:href="#Unbenannter_Verlauf_22"/><linearGradient id="Unbenannter_Verlauf_22-6" x1="189.02" y1="125.54" x2="199.86" y2="125.54" xlink:href="#Unbenannter_Verlauf_22"/><linearGradient id="Unbenannter_Verlauf_22-7" x1="189.31" y1="117.66" x2="195.67" y2="117.66" xlink:href="#Unbenannter_Verlauf_22"/><linearGradient id="Unbenannter_Verlauf_22-8" x1="196.28" x2="203.72" xlink:href="#Unbenannter_Verlauf_22"/></defs><title>raabit_icons_hellgrau</title><rect class="cls-1" width="80" height="80"/><rect class="cls-1" x="80" width="80" height="80"/><rect class="cls-1" x="160" width="80" height="80"/><rect class="cls-1" x="240" width="80" height="80"/><rect class="cls-1" y="80" width="80" height="80"/><rect class="cls-1" x="80" y="80" width="80" height="80"/><rect class="cls-1" x="160" y="80" width="80" height="80"/><rect class="cls-1" x="240" y="80" width="80" height="80"/><rect class="cls-1" y="160" width="80" height="80"/><rect class="cls-1" x="80" y="160" width="80" height="80"/><rect class="cls-1" x="160" y="160" width="80" height="80"/><rect class="cls-1" x="240" y="160" width="80" height="80"/><rect class="cls-1" y="240" width="80" height="80"/><rect class="cls-1" x="80" y="240" width="80" height="80"/><rect class="cls-1" x="160" y="240" width="80" height="80"/><rect class="cls-1" x="240" y="240" width="80" height="80"/><path class="cls-2" d="M127.58,42.6l-10.82-7.42v0L105.93,42.6a.87.87,0,0,0,.47,1.59.91.91,0,0,0,.48-.13l9.87-6.78,9.87,6.78a.94.94,0,0,0,.48.13.84.84,0,0,0,.73-.39A.87.87,0,0,0,127.58,42.6Z"/><path class="cls-3" d="M116.71,38.56,108,44.8s0,10.81,0,10.81h5.19V50.83A1.73,1.73,0,0,1,115,49.1h3.47a1.73,1.73,0,0,1,1.74,1.73v4.78h5.22V44.84l0,0Z"/><path class="cls-4" d="M120.29,32.88a5,5,0,0,1,6,3.68.83.83,0,0,0,.37.52.81.81,0,0,0,.63.09.83.83,0,0,0,.62-1,6.68,6.68,0,0,0-8.06-4.91.83.83,0,1,0,.39,1.62Zm14.15,1.71a13.34,13.34,0,0,0-16.12-9.82.83.83,0,0,0,.4,1.62,11.68,11.68,0,0,1,14.1,8.6.83.83,0,0,0,.38.51.8.8,0,0,0,.63.1A.83.83,0,0,0,134.44,34.59Zm-7.76-5.4A10,10,0,0,0,119.11,28a.83.83,0,0,0-.61,1,.85.85,0,0,0,1,.62,8.34,8.34,0,0,1,10.07,6.13.81.81,0,0,0,.37.52.88.88,0,0,0,.64.1.84.84,0,0,0,.61-1A9.94,9.94,0,0,0,126.68,29.19Z"/><path class="cls-5" d="M185.73,32.2a18.64,18.64,0,0,0,2.36,11.21c3.3,6.17,7.57,7.4,7.57,7.4s2.85.82,4.39-3.08l-3.62-4.52-2.2,1.54A15.83,15.83,0,0,1,191.6,41a16.85,16.85,0,0,1-1.76-4.44L192,34.88l-1.87-5.75A4,4,0,0,0,185.73,32.2Z"/><path class="cls-6" d="M200.86,40.13a5,5,0,0,1,5.2,4.8.82.82,0,0,0,.27.58.79.79,0,0,0,.59.22.84.84,0,0,0,.81-.86,6.7,6.7,0,0,0-6.94-6.41.84.84,0,0,0,.07,1.67Zm13.53,4.47a13.36,13.36,0,0,0-13.86-12.81.84.84,0,1,0,.07,1.67,11.69,11.69,0,0,1,12.13,11.21.82.82,0,0,0,.86.8A.84.84,0,0,0,214.39,44.6Zm-6.54-6.82a10,10,0,0,0-7.19-2.65.84.84,0,0,0,.07,1.67,8.32,8.32,0,0,1,8.66,8,.84.84,0,0,0,.87.8.83.83,0,0,0,.8-.86A9.92,9.92,0,0,0,207.85,37.78Z"/><path class="cls-7" d="M295.1,43.63a2.34,2.34,0,0,0-1.64-1l-.55-4.68a3,3,0,0,0,.47-.24,2.36,2.36,0,0,0-2.63-3.93,2.3,2.3,0,0,0-.41.35l-11.78-6.46a2.36,2.36,0,0,0-3.36-3.13,2.36,2.36,0,0,0,1.32,4.33l1.7,8a5.07,5.07,0,0,0-1.11.52,4.62,4.62,0,0,0-1.81,2.47l-5-1.6a2.36,2.36,0,1,0-4.3,1,2.3,2.3,0,0,0,.93.8l-.41,4.54a2.39,2.39,0,0,0-.93.37,2.36,2.36,0,1,0,3.67,1.88l6.86-2.8a4.59,4.59,0,0,0,4.44,1.67l-2.84,5.59a2.36,2.36,0,1,0,.61,4.21A2.37,2.37,0,0,0,279,52.2a2.08,2.08,0,0,0-.27-.32L282.16,45l.06,0a4.62,4.62,0,0,0,1.59-1.88l7,2.24a2.4,2.4,0,0,0,.36.9,2.36,2.36,0,0,0,3.93-2.62Zm-26.27,1.95a2.3,2.3,0,0,0-1.19-.91l.4-4.41a2.31,2.31,0,0,0,1.2-.39,2.14,2.14,0,0,0,.59-.57L275.1,41a4.45,4.45,0,0,0,.37,2l-6.58,2.69Zm8.82-17,.06,0,12.07,6.63a2.32,2.32,0,0,0-.06.83l-6.45,2.39a4.57,4.57,0,0,0-3.9-1.75Zm.14,13.89a2.26,2.26,0,1,1,3.13.62A2.27,2.27,0,0,1,277.79,42.43Zm6.1-3,6.23-2.31a2.4,2.4,0,0,0,1.63,1l.55,4.67a2.19,2.19,0,0,0-.48.25,2.35,2.35,0,0,0-.91,1.18L284.17,42A4.55,4.55,0,0,0,283.89,39.38Z"/><path class="cls-8" d="M40.43,27.22C32,27.22,28.14,34.4,28.14,39.5a12.16,12.16,0,0,0,2,6.63L27.53,51a1.36,1.36,0,0,0-.11,1.35,1,1,0,0,0,.83.44,1.93,1.93,0,0,0,.84-.24L34,50a12.28,12.28,0,1,0,6.45-22.74Zm2.28,20.64H41.59v.56H39.33v-.56H38.21V46.73h4.5Zm0-1.69h-4.5V45h4.5Zm0-2.25v.56h-4.5v-.56c0-1.69-3.38-2.82-3.38-6.76a5.63,5.63,0,0,1,11.26,0C46.09,41.1,42.71,42.23,42.71,43.92Z"/><path class="cls-9" d="M130.59,123.41a4.41,4.41,0,0,0,0-6.12l-.11-.11-2.42-2.42a.53.53,0,0,1,0-.76.53.53,0,0,1,.41-.16,2.51,2.51,0,1,0,.17-5,2.51,2.51,0,0,0-2.35,1.62v0a2.52,2.52,0,0,0-.14,1,.55.55,0,0,1-.51.58.58.58,0,0,1-.38-.12l-1.85-1.85-.64-.64a4.41,4.41,0,0,0-6.21,0l0,0-2.07,2.06a.58.58,0,0,0-.2.46.55.55,0,0,0,.58.51,2.72,2.72,0,0,1,1,.14l0,0a2.51,2.51,0,1,1-3.23,3.23,2.49,2.49,0,0,1-.16-1,.54.54,0,0,0-.92-.42l-2.07,2.07,0,0a4.41,4.41,0,0,0,0,6.19l0,0,3.35,3.34a.5.5,0,0,0,.45.15.54.54,0,0,0,.47-.61,2.55,2.55,0,0,1,4.26-2.09h0a2.55,2.55,0,0,1-2.08,4.26.54.54,0,0,0-.47.15.53.53,0,0,0,0,.77l1.79,1.79a4.41,4.41,0,0,0,6.19,0l0,0,7-7A.46.46,0,0,0,130.59,123.41Z"/><path class="cls-10" d="M48.62,104.17H31.27a.76.76,0,0,0-.76.76v3.36a.76.76,0,0,0,.76.76H48.62a.76.76,0,0,0,.75-.76v-3.36A.76.76,0,0,0,48.62,104.17ZM31.93,106a.5.5,0,0,1-.5-.5.5.5,0,0,1,.5-.5.51.51,0,0,1,.5.5A.5.5,0,0,1,31.93,106Zm15.7,1.31h-6V106h6Z"/><path class="cls-11" d="M48.62,110.5H31.27a.76.76,0,0,0-.76.76v3.36a.76.76,0,0,0,.76.76H48.62a.76.76,0,0,0,.75-.76v-3.36A.76.76,0,0,0,48.62,110.5Zm-16.69,1.79a.51.51,0,0,1,0-1,.51.51,0,0,1,0,1Zm15.7,1.3h-6v-1.3h6Z"/><path class="cls-12" d="M48.62,116.83H31.27a.76.76,0,0,0-.76.76V121a.76.76,0,0,0,.76.76H48.62a.76.76,0,0,0,.75-.76v-3.36A.76.76,0,0,0,48.62,116.83Zm-16.69,1.79a.5.5,0,0,1-.5-.5.5.5,0,0,1,.5-.5.5.5,0,0,1,.5.5A.51.51,0,0,1,31.93,118.62Zm15.7,1.31h-6v-1.31h6Z"/><path class="cls-13" d="M52.56,130.82v-4H40.46v-3.76h-1v3.76H27.35v4a2.54,2.54,0,1,0,1,0v-3H39.45v3a2.54,2.54,0,1,0,1,0v-3H51.54v3a2.54,2.54,0,1,0,1,0Z"/><path class="cls-14" d="M289.56,107.59a30.23,30.23,0,0,0-19.11,0,3.79,3.79,0,0,0-2.59,3.5v11.13a8,8,0,0,0,1.88,4.73c4.53,4.65,7.36,7,10.26,7s5.73-2.37,10.27-7a7.87,7.87,0,0,0,1.87-4.73V111.09A3.84,3.84,0,0,0,289.56,107.59Zm1,14.62a6.4,6.4,0,0,1-1.43,3.64c-4.23,4.33-6.8,6.54-9.14,6.54s-4.91-2.21-9.13-6.54a6.37,6.37,0,0,1-1.44-3.64V111.09a2.29,2.29,0,0,1,1.5-2,28.75,28.75,0,0,1,18.15,0,2.28,2.28,0,0,1,1.49,2Z"/><path class="cls-15" d="M288.79,109.93a27.88,27.88,0,0,0-17.6,0,1.42,1.42,0,0,0-.86,1.15v11.12a5.74,5.74,0,0,0,1.18,3c4,4.06,6.48,6.26,8.49,6.26s4.54-2.2,8.48-6.25a5.58,5.58,0,0,0,1.19-3V111.09A1.42,1.42,0,0,0,288.79,109.93Zm-1.18,2.62-7.82,2.51v1.17l7.82-2.51V115l-7.82,2.51v1.18l7.82-2.51v1.3L279.79,120v1.18l7.82-2.51V120l-7.82,2.51v1.17l7.82-2.51v1c0,.08,0,.18-.05.29L279.79,125v1.18l7.12-2.29c-.52.54-1.19,1.22-1.91,1.92l-5.21,1.68v1.17l3.23-1c-1.2,1-2.33,1.81-3,1.81-1.52,0-5.23-3.81-7-5.64a4.11,4.11,0,0,1-.6-1.59V111.73a25.83,25.83,0,0,1,7.4-1.15v.69l1.95-.63a28,28,0,0,1,2.9.37l-4.85,1.56v1.18l7-2.25.83.22Z"/><path class="cls-16" d="M50.36,192.64l0,0a12.76,12.76,0,0,0-8.87-5.22l-.33,0H41a10.23,10.23,0,0,0-2,0h-.11l-.33,0a12.74,12.74,0,0,0-8.87,5.22l0,0a12.71,12.71,0,0,0,0,14.77h0a12.73,12.73,0,0,0,8.89,5.21l.23,0h.12c.42,0,.76.05,1.08.05s.66,0,1.08-.05h.12l.23,0a12.75,12.75,0,0,0,8.89-5.21h0a12.71,12.71,0,0,0,0-14.77Zm-1,1.68h.16l.08.14A10.9,10.9,0,0,1,51,198.89l0,.3h-5.4l0-.26a19.65,19.65,0,0,0-.71-4.26l-.1-.35h4.53Zm-6.33-5a11.13,11.13,0,0,1,4.88,2.9l.45.46H44.25l-.07-.17a19.87,19.87,0,0,0-1.45-2.79l-.38-.6Zm-6.78,11.47H44l0,.29a18.09,18.09,0,0,1-.81,4.39l-.06.19h-6.3l-.06-.19A17.63,17.63,0,0,1,36,201.1l0-.29ZM36,199.19l0-.29a18,18,0,0,1,.84-4.39l.06-.19h6.24l.06.19A18,18,0,0,1,44,198.9v.29ZM39.79,189l.08-.1h.26l.08.1a17.37,17.37,0,0,1,2.09,3.3l.19.39h-5l.19-.39A17.37,17.37,0,0,1,39.79,189Zm-7.7,3.23a11.13,11.13,0,0,1,4.88-2.9l.68-.2-.38.6a18.87,18.87,0,0,0-1.45,2.79l-.07.17H31.64ZM29,198.89a10.9,10.9,0,0,1,1.43-4.43l.08-.14h4.69l-.1.35a19.67,19.67,0,0,0-.72,4.26v.26h-5.4Zm1.67,6.79h-.16l-.08-.13A11,11,0,0,1,29,201.11l0-.3h5.4v.26a19.33,19.33,0,0,0,.7,4.27l.1.34H30.64Zm6.28,5a11.08,11.08,0,0,1-4.83-2.89l-.45-.46h4.08l.07.17a18.7,18.7,0,0,0,1.43,2.78l.38.6Zm3.35.34-.08.1h-.38l-.08-.1a16.76,16.76,0,0,1-2.06-3.3l-.19-.39h5l-.19.39A16.76,16.76,0,0,1,40.27,211Zm7.64-3.23a11.14,11.14,0,0,1-4.83,2.89l-.68.2.38-.6a20.81,20.81,0,0,0,1.43-2.78l.07-.17h4.08ZM51,201.11a11,11,0,0,1-1.43,4.44l-.08.13H44.85l.1-.34a19.33,19.33,0,0,0,.7-4.27v-.26h5.4Z"/><path class="cls-17" d="M200,106.82A13.18,13.18,0,1,0,213.18,120,13.18,13.18,0,0,0,200,106.82ZM200,132a12,12,0,1,1,12-12A12,12,0,0,1,200,132Z"/><path class="cls-18" d="M198.25,115.73a4.63,4.63,0,0,1,6.33,3.71l6.32-.75a11,11,0,0,0-15.2-8.8Z"/><path class="cls-19" d="M204.21,121.88l5.87,2.48a11,11,0,0,0,.82-3l-6.33-.76A4.46,4.46,0,0,1,204.21,121.88Z"/><path class="cls-20" d="M196.46,117l-5-4a11.56,11.56,0,0,0-1.32,2l5.72,2.81A4.67,4.67,0,0,1,196.46,117Z"/><path class="cls-21" d="M203.93,122.41a4.6,4.6,0,0,1-2,1.76l2.9,5.67a11,11,0,0,0,4.57-4.23Z"/><path class="cls-22" d="M199.86,124.61a4.62,4.62,0,0,1-4.47-4.51l-6.37.05A11,11,0,0,0,199.84,131Z"/><path class="cls-23" d="M195.51,119a3.24,3.24,0,0,1,.16-.53l-6-2.07a11.59,11.59,0,0,0-.33,1.15Z"/><path class="cls-24" d="M200,116.28a3.72,3.72,0,1,0,3.72,3.72A3.72,3.72,0,0,0,200,116.28Zm0,6.58a2.86,2.86,0,1,1,2.86-2.86A2.86,2.86,0,0,1,200,122.86Z"/></svg>