<svg id="Ebene_1" data-name="Ebene 1" xmlns="http://www.w3.org/2000/svg" viewBox="0 0 190 121"><defs><style>.cls-1{fill:#fff;}.cls-2{fill:#1e1e1c;}.cls-3{fill:#dc1218;}</style></defs><title>raabit_logo_header</title><polygon class="cls-1" points="10.04 90.18 40.86 121 70 90.18 10.04 90.18"/><path class="cls-2" d="M104.68,74l5.51-25.91h11.49a13.88,13.88,0,0,1,5.12.7,4.21,4.21,0,0,1,2.36,2.46,6.66,6.66,0,0,1,.25,3.91,8.27,8.27,0,0,1-2.78,4.65,11.23,11.23,0,0,1-6,2.4,6.84,6.84,0,0,1,1.79,1.29,13.33,13.33,0,0,1,2.12,3.45l3,7h-4.31l-2.28-5.39A38.81,38.81,0,0,0,119.21,65a5.73,5.73,0,0,0-1.37-1.73,4.07,4.07,0,0,0-1.42-.69,10.13,10.13,0,0,0-1.88-.12h-4L108.11,74Zm6.51-14.47h7.37a12.12,12.12,0,0,0,3.78-.49,5.13,5.13,0,0,0,2.35-1.56,5.19,5.19,0,0,0,1.18-2.32,3.23,3.23,0,0,0-.69-3c-.72-.79-2-1.19-4-1.19H113Z"/><path class="cls-2" d="M143.11,71.68a15.48,15.48,0,0,1-3.85,2.12,11,11,0,0,1-3.64.62c-2.06,0-3.54-.51-4.44-1.51a4.22,4.22,0,0,1-.84-3.87,6.32,6.32,0,0,1,1.17-2.52,6.87,6.87,0,0,1,2-1.82,9.79,9.79,0,0,1,2.51-1.05,28.16,28.16,0,0,1,2.93-.48,32.9,32.9,0,0,0,5.91-1.09c.1-.44.17-.71.19-.83.28-1.3.17-2.21-.32-2.74a4.44,4.44,0,0,0-3.39-1.08A5.3,5.3,0,0,0,135.71,61l-3-.42a10.06,10.06,0,0,1,2.08-3.23A8.16,8.16,0,0,1,138,55.46a13.83,13.83,0,0,1,4.4-.66,10.18,10.18,0,0,1,3.78.56,3.84,3.84,0,0,1,1.91,1.42,4.13,4.13,0,0,1,.53,2.17,18.37,18.37,0,0,1-.46,2.93l-.91,4.25a47.91,47.91,0,0,0-1,5.61,5.88,5.88,0,0,0,.32,2.25h-3.32A6.11,6.11,0,0,1,143.11,71.68Zm1.25-7.11a27,27,0,0,1-5.45,1.2,13.8,13.8,0,0,0-2.92.64,3.8,3.8,0,0,0-1.47,1,3.32,3.32,0,0,0-.76,1.52,2.27,2.27,0,0,0,.51,2.12,3.48,3.48,0,0,0,2.64.85,7.54,7.54,0,0,0,3.44-.81,6.73,6.73,0,0,0,2.57-2.2,9,9,0,0,0,1.19-3.18Z"/><path class="cls-2" d="M163.25,71.68a15.52,15.52,0,0,1-3.86,2.12,11,11,0,0,1-3.64.62c-2.06,0-3.54-.51-4.43-1.51a4.22,4.22,0,0,1-.84-3.87,6.17,6.17,0,0,1,1.16-2.52,7,7,0,0,1,2-1.82,10,10,0,0,1,2.52-1.05,27.25,27.25,0,0,1,2.93-.48,32.57,32.57,0,0,0,5.9-1.09c.11-.44.17-.71.2-.83.27-1.3.17-2.21-.32-2.74a4.46,4.46,0,0,0-3.4-1.08,6.45,6.45,0,0,0-3.48.79A6.37,6.37,0,0,0,155.85,61l-3-.42a9.9,9.9,0,0,1,2.08-3.23,8.05,8.05,0,0,1,3.21-1.89,13.87,13.87,0,0,1,4.4-.66,10.2,10.2,0,0,1,3.79.56,3.88,3.88,0,0,1,1.91,1.42,4.22,4.22,0,0,1,.53,2.17,18.76,18.76,0,0,1-.47,2.93l-.9,4.25a46.59,46.59,0,0,0-1,5.61,6.09,6.09,0,0,0,.33,2.25h-3.33A5.93,5.93,0,0,1,163.25,71.68Zm1.24-7.11a26.84,26.84,0,0,1-5.45,1.2,13.52,13.52,0,0,0-2.91.64,3.91,3.91,0,0,0-1.48,1,3.42,3.42,0,0,0-.76,1.52,2.27,2.27,0,0,0,.51,2.12,3.51,3.51,0,0,0,2.64.85,7.48,7.48,0,0,0,3.44-.81,6.84,6.84,0,0,0,2.58-2.2,9,9,0,0,0,1.18-3.18Z"/><path class="cls-2" d="M173.57,74h-2.95l5.51-25.91h3.18l-2,9.24A7.91,7.91,0,0,1,183,54.8a7,7,0,0,1,3.13.69,5,5,0,0,1,2.13,2,7.65,7.65,0,0,1,.91,3,11.94,11.94,0,0,1-.24,3.81,13.43,13.43,0,0,1-4,7.46,9.3,9.3,0,0,1-6.29,2.64,4.69,4.69,0,0,1-4.63-2.78Zm2-9.52q-.7,3.38-.11,4.87A3.54,3.54,0,0,0,179,71.8,5.75,5.75,0,0,0,183,70a10.19,10.19,0,0,0,2.67-5.4q.78-3.68-.31-5.43a3.49,3.49,0,0,0-3.15-1.75,5.79,5.79,0,0,0-4,1.81A9.9,9.9,0,0,0,175.56,64.47Z"/><path class="cls-2" d="M104.66,86V77.86h1.65V86Z"/><path class="cls-2" d="M109.72,86v-6.8H107.3V77.86h6.5v1.38h-2.42V86Z"/><path class="cls-2" d="M117.62,83.38l1.61-.16a2,2,0,0,0,.59,1.19,2.18,2.18,0,0,0,2.4,0,1,1,0,0,0,.41-.79.75.75,0,0,0-.17-.49,1.4,1.4,0,0,0-.6-.36c-.19-.06-.63-.18-1.32-.35a4.51,4.51,0,0,1-1.87-.81,2.17,2.17,0,0,1-.4-2.82,2.26,2.26,0,0,1,1-.83,4.07,4.07,0,0,1,1.61-.28,3.47,3.47,0,0,1,2.32.67A2.39,2.39,0,0,1,124,80.2l-1.65.07a1.43,1.43,0,0,0-.45-.91,1.73,1.73,0,0,0-1-.27,1.87,1.87,0,0,0-1.13.29.62.62,0,0,0-.26.51.63.63,0,0,0,.25.5,4.38,4.38,0,0,0,1.51.54,8.22,8.22,0,0,1,1.79.59,2.32,2.32,0,0,1,.9.83,2.45,2.45,0,0,1,.33,1.31,2.42,2.42,0,0,1-1.5,2.23,4.59,4.59,0,0,1-1.78.3,3.53,3.53,0,0,1-2.38-.72A3.12,3.12,0,0,1,117.62,83.38Z"/><path class="cls-2" d="M124.91,80.11h1.67L128,84.32l1.39-4.21H131l-2.09,5.71-.38,1a3.85,3.85,0,0,1-.39.79,1.61,1.61,0,0,1-1,.71,2.78,2.78,0,0,1-.8.1,3.8,3.8,0,0,1-.89-.1l-.14-1.23a3.47,3.47,0,0,0,.67.08,1,1,0,0,0,.81-.32,2.33,2.33,0,0,0,.4-.82Z"/><path class="cls-2" d="M131.46,84.35l1.58-.24a1.11,1.11,0,0,0,.4.69,1.39,1.39,0,0,0,.86.24,1.56,1.56,0,0,0,.92-.22.51.51,0,0,0,.21-.42.41.41,0,0,0-.12-.3,1.22,1.22,0,0,0-.52-.2,8.47,8.47,0,0,1-2.41-.77,1.51,1.51,0,0,1-.7-1.33,1.63,1.63,0,0,1,.61-1.3,2.83,2.83,0,0,1,1.89-.52,3.29,3.29,0,0,1,1.8.39,2,2,0,0,1,.82,1.18l-1.48.27a.88.88,0,0,0-.36-.53,1.36,1.36,0,0,0-.76-.18,1.62,1.62,0,0,0-.88.17.37.37,0,0,0-.18.32.35.35,0,0,0,.15.28,5.78,5.78,0,0,0,1.47.44,4.47,4.47,0,0,1,1.75.7,1.45,1.45,0,0,1,.49,1.17,1.8,1.8,0,0,1-.68,1.4,3,3,0,0,1-2,.58,3.28,3.28,0,0,1-1.91-.49A2.27,2.27,0,0,1,131.46,84.35Z"/><path class="cls-2" d="M141.09,80.11v1.25H140v2.39a6.1,6.1,0,0,0,0,.85.39.39,0,0,0,.14.2.45.45,0,0,0,.27.07,2.1,2.1,0,0,0,.63-.15l.13,1.22a3,3,0,0,1-1.24.23,1.84,1.84,0,0,1-.76-.14,1,1,0,0,1-.5-.37,1.37,1.37,0,0,1-.22-.61,6.69,6.69,0,0,1-.05-1.1V81.36h-.72V80.11h.72V78.93L140,78v2.09Z"/><path class="cls-2" d="M145.61,84.15l1.57.27a2.59,2.59,0,0,1-1,1.31,2.89,2.89,0,0,1-1.63.44,2.63,2.63,0,0,1-2.29-1,3.4,3.4,0,0,1-.59-2,3.3,3.3,0,0,1,.77-2.31,2.58,2.58,0,0,1,1.95-.83,2.64,2.64,0,0,1,2.09.87,3.89,3.89,0,0,1,.73,2.68h-3.93a1.57,1.57,0,0,0,.38,1.08,1.17,1.17,0,0,0,.9.39.91.91,0,0,0,.62-.2A1.18,1.18,0,0,0,145.61,84.15Zm.09-1.58a1.48,1.48,0,0,0-.35-1,1.14,1.14,0,0,0-1.66,0,1.44,1.44,0,0,0-.33,1Z"/><path class="cls-2" d="M148.42,80.11h1.45v.81a2.32,2.32,0,0,1,1.85-.94,2,2,0,0,1,1,.23,1.89,1.89,0,0,1,.69.71,2.89,2.89,0,0,1,.84-.71,2.16,2.16,0,0,1,1-.23,2.21,2.21,0,0,1,1.1.26A1.62,1.62,0,0,1,157,81a3.36,3.36,0,0,1,.16,1.23V86h-1.57V82.65a2.5,2.5,0,0,0-.16-1.14.74.74,0,0,0-.67-.33,1.11,1.11,0,0,0-.62.2,1.14,1.14,0,0,0-.42.59,4.44,4.44,0,0,0-.13,1.22V86H152V82.79a4.14,4.14,0,0,0-.09-1.11.67.67,0,0,0-.26-.38.8.8,0,0,0-.47-.12,1.16,1.16,0,0,0-.66.19,1.06,1.06,0,0,0-.41.57,3.9,3.9,0,0,0-.13,1.22V86h-1.57Z"/><path class="cls-2" d="M160.27,77.86v3a2.28,2.28,0,0,1,1.81-.89,2.38,2.38,0,0,1,1,.2,1.58,1.58,0,0,1,.66.51,2.13,2.13,0,0,1,.3.69,6.66,6.66,0,0,1,.08,1.18V86h-1.57V82.91a4.54,4.54,0,0,0-.09-1.18.79.79,0,0,0-.32-.4,1,1,0,0,0-.56-.15,1.27,1.27,0,0,0-.7.19,1.08,1.08,0,0,0-.45.57,3.58,3.58,0,0,0-.14,1.13v3H158.7V77.86Z"/><path class="cls-2" d="M166.86,81.92l-1.42-.26a2.23,2.23,0,0,1,.82-1.27A3.07,3.07,0,0,1,168,80a3.69,3.69,0,0,1,1.56.25,1.51,1.51,0,0,1,.72.63,3.19,3.19,0,0,1,.21,1.4l0,1.83a6.4,6.4,0,0,0,.08,1.16,3.28,3.28,0,0,0,.28.79h-1.55c0-.1-.09-.26-.15-.46l-.06-.19a2.81,2.81,0,0,1-.86.59,2.43,2.43,0,0,1-1,.19,2,2,0,0,1-1.45-.49,1.65,1.65,0,0,1-.52-1.26,1.67,1.67,0,0,1,.24-.89,1.52,1.52,0,0,1,.67-.61,5,5,0,0,1,1.25-.36,8.5,8.5,0,0,0,1.52-.39V82a.81.81,0,0,0-.22-.65,1.34,1.34,0,0,0-.85-.19,1.12,1.12,0,0,0-.65.16A1.18,1.18,0,0,0,166.86,81.92Zm2.1,1.27a8.41,8.41,0,0,1-1,.24,3,3,0,0,0-.86.28.66.66,0,0,0-.31.55.79.79,0,0,0,.25.57.84.84,0,0,0,.62.24,1.31,1.31,0,0,0,.81-.28,1,1,0,0,0,.38-.52,3.13,3.13,0,0,0,.06-.76Z"/><path class="cls-2" d="M176,86v-.89a2.28,2.28,0,0,1-.85.75,2.43,2.43,0,0,1-1.12.27,2.15,2.15,0,0,1-1.07-.26,1.55,1.55,0,0,1-.68-.73,3.18,3.18,0,0,1-.22-1.32V80.11h1.57v2.73a7.28,7.28,0,0,0,.09,1.53.85.85,0,0,0,.31.45,1,1,0,0,0,.58.16,1.2,1.2,0,0,0,.72-.22,1.11,1.11,0,0,0,.44-.55,6.22,6.22,0,0,0,.12-1.6v-2.5h1.57V86Z"/><path class="cls-2" d="M178.48,84.35l1.57-.24a1.12,1.12,0,0,0,.41.69,1.35,1.35,0,0,0,.86.24,1.53,1.53,0,0,0,.91-.22.51.51,0,0,0,.21-.42.44.44,0,0,0-.11-.3,1.28,1.28,0,0,0-.53-.2,8.48,8.48,0,0,1-2.4-.77,1.51,1.51,0,0,1-.7-1.33,1.65,1.65,0,0,1,.6-1.3,2.86,2.86,0,0,1,1.89-.52,3.36,3.36,0,0,1,1.81.39,2,2,0,0,1,.81,1.18l-1.47.27a1,1,0,0,0-.36-.53,1.36,1.36,0,0,0-.76-.18,1.68,1.68,0,0,0-.89.17.37.37,0,0,0-.18.32.33.33,0,0,0,.16.28,5.64,5.64,0,0,0,1.46.44,4.4,4.4,0,0,1,1.75.7,1.45,1.45,0,0,1,.5,1.17,1.78,1.78,0,0,1-.69,1.4,3,3,0,0,1-2,.58,3.29,3.29,0,0,1-1.92-.49A2.21,2.21,0,0,1,178.48,84.35Z"/><path class="cls-3" d="M0,49.54v5.72s40.73,40,40.73,45.73C59.07,66.69,128.31,3.81,134.42,0h-8.14C106.76,13.34,57,51.45,40.73,68.6L0,49.54"/></svg>