<svg id="Ebene_1" data-name="Ebene 1" xmlns="http://www.w3.org/2000/svg" xmlns:xlink="http://www.w3.org/1999/xlink" viewBox="0 0 40 40"><defs><style>.cls-1{fill:url(#Unbenannter_Verlauf_19);}</style><radialGradient id="Unbenannter_Verlauf_19" cx="3.94" cy="8.62" r="11.89" gradientUnits="userSpaceOnUse"><stop offset="0" stop-color="#fff"/><stop offset="1" stop-color="#e3e3e2"/></radialGradient></defs><title>raabit_sidebar_icon_phone</title><path class="cls-1" d="M40,11.9h0c0-3.57-10.33-6.47-20-6.47S0,8.33,0,11.9v4.72c0,.69,2.24,1.25,5,1.25.59,0,1.16,0,1.69-.08L5.41,25.46a36.08,36.08,0,0,0-.41,5v2.5a2.51,2.51,0,0,0,2.5,2.5h25a2.51,2.51,0,0,0,2.5-2.5v-2.5a37.71,37.71,0,0,0-.41-5l-1.28-7.67c.53.05,1.1.08,1.69.08,2.76,0,5-.56,5-1.25Zm-20,16c-5,0-9-3.36-9-7.5s4-7.5,9-7.5,9,3.36,9,7.5S25,27.93,20,27.93Z"/></svg>