<?xml version="1.0" encoding="utf-8"?>
<!-- Generator: Adobe Illustrator 23.1.1, SVG Export Plug-In . SVG Version: 6.00 Build 0)  -->
<svg version="1.1" id="Ebene_1" xmlns="http://www.w3.org/2000/svg" xmlns:xlink="http://www.w3.org/1999/xlink" x="0px" y="0px"
	 width="258.8px" height="121px" viewBox="0 0 258.8 121" style="enable-background:new 0 0 258.8 121;" xml:space="preserve">
<style type="text/css">
	.st0{fill:#FFFFFF;}
	.st1{fill:#DC1218;}
	.st2{fill:#1E1E1C;}
</style>
<polygon class="st0" points="10,90.2 40.9,121 70,90.2 "/>
<path class="st1" d="M0,49.5v5.7c0,0,40.7,40,40.7,45.7C59.1,66.7,128.3,3.8,134.4,0h-8.1C106.8,13.3,57,51.5,40.7,68.6L0,49.5"/>
<g>
	<path class="st2" d="M133.7,64.3l8.1-37.9h16.8c2.5-0.1,5.1,0.2,7.5,1c1.6,0.7,2.9,2,3.5,3.6c0.7,1.8,0.8,3.8,0.4,5.7
		c-0.6,2.7-2,5.1-4.1,6.8c-2.5,2-5.6,3.2-8.8,3.5c1,0.5,1.9,1.1,2.6,1.9c1.3,1.5,2.3,3.2,3.1,5l4.4,10.2h-6.3l-3.3-7.9
		c-0.8-1.8-1.6-3.5-2.5-5.2c-0.5-1-1.2-1.8-2-2.5c-0.6-0.5-1.3-0.8-2.1-1c-0.9-0.1-1.8-0.2-2.7-0.2h-5.8l-3.6,16.9H133.7z
		 M143.2,43.2H154c1.9,0.1,3.7-0.2,5.5-0.7c1.3-0.4,2.5-1.2,3.4-2.3c0.9-1,1.4-2.1,1.7-3.4c0.4-1.5,0-3.2-1-4.4
		c-1.1-1.2-2.9-1.7-5.8-1.7h-12L143.2,43.2z"/>
	<path class="st2" d="M189.9,60.9c-1.7,1.3-3.6,2.3-5.6,3.1c-1.7,0.6-3.5,0.9-5.3,0.9c-3,0-5.2-0.7-6.5-2.2
		c-1.3-1.6-1.8-3.7-1.2-5.7c0.3-1.3,0.9-2.6,1.7-3.7c0.8-1.1,1.8-2,2.9-2.7c1.1-0.7,2.4-1.2,3.7-1.5c1.4-0.3,2.8-0.5,4.3-0.7
		c2.9-0.3,5.8-0.8,8.6-1.6c0.1-0.6,0.2-1,0.3-1.2c0.4-1.9,0.2-3.2-0.5-4c-1.4-1.2-3.2-1.8-5-1.6c-3.6-0.4-7.1,1.8-8.2,5.2l-4.4-0.6
		c0.7-1.8,1.7-3.4,3-4.7c1.3-1.3,2.9-2.2,4.7-2.8c2.1-0.7,4.3-1,6.4-1c1.9-0.1,3.8,0.2,5.5,0.8c1.1,0.4,2.1,1.1,2.8,2.1
		c0.5,1,0.8,2.1,0.8,3.2c-0.1,1.4-0.3,2.9-0.7,4.3l-1.3,6.2c-0.6,2.7-1.1,5.4-1.5,8.2c-0.1,1.1,0.1,2.2,0.5,3.3h-4.9
		C189.8,63.2,189.7,62.1,189.9,60.9z M191.7,50.5c-2.6,0.9-5.3,1.4-8,1.8c-1.5,0.2-2.9,0.5-4.3,0.9c-0.8,0.3-1.6,0.8-2.1,1.5
		c-0.6,0.6-0.9,1.4-1.1,2.2c-0.3,1.1,0,2.3,0.7,3.1c1.1,0.9,2.5,1.4,3.9,1.2c1.7,0,3.5-0.4,5-1.2c1.5-0.7,2.8-1.8,3.8-3.2
		c0.9-1.4,1.5-3,1.7-4.6L191.7,50.5z"/>
	<path class="st2" d="M219.3,60.9c-1.7,1.3-3.6,2.3-5.6,3.1c-1.7,0.6-3.5,0.9-5.3,0.9c-3,0-5.2-0.7-6.5-2.2
		c-1.3-1.6-1.8-3.7-1.2-5.7c0.3-1.3,0.9-2.6,1.7-3.7c0.8-1.1,1.8-2,2.9-2.7c1.2-0.7,2.4-1.2,3.7-1.5c1.4-0.3,2.8-0.5,4.3-0.7
		c2.9-0.3,5.8-0.8,8.6-1.6c0.2-0.6,0.2-1,0.3-1.2c0.4-1.9,0.2-3.2-0.5-4c-1.4-1.2-3.2-1.8-5-1.6c-1.8-0.1-3.5,0.3-5.1,1.2
		c-1.4,1-2.5,2.4-3.1,4.1l-4.4-0.6c0.7-1.8,1.7-3.4,3-4.7c1.3-1.3,2.9-2.2,4.7-2.8c2.1-0.7,4.3-1,6.4-1c1.9-0.1,3.8,0.2,5.5,0.8
		c1.1,0.4,2.1,1.1,2.8,2.1c0.5,1,0.8,2.1,0.8,3.2c-0.1,1.4-0.3,2.9-0.7,4.3l-1.3,6.2c-0.7,2.7-1.1,5.4-1.5,8.2
		c0,1.1,0.1,2.2,0.5,3.3h-4.9C219.3,63.2,219.2,62.1,219.3,60.9z M221.1,50.5c-2.6,0.9-5.3,1.4-8,1.8c-1.4,0.2-2.9,0.5-4.3,0.9
		c-0.8,0.3-1.6,0.8-2.2,1.5c-0.6,0.6-0.9,1.4-1.1,2.2c-0.3,1.1,0,2.3,0.7,3.1c1.1,0.9,2.5,1.4,3.9,1.2c1.7,0,3.5-0.4,5-1.2
		c1.5-0.7,2.8-1.8,3.8-3.2c0.9-1.4,1.5-3,1.7-4.6L221.1,50.5z"/>
	<path class="st2" d="M234.4,64.3h-4.3l8.1-37.9h4.6L239.9,40c2.2-2.3,5.2-3.7,8.3-3.7c1.6,0,3.1,0.3,4.6,1c1.3,0.6,2.4,1.7,3.1,2.9
		c0.7,1.4,1.2,2.8,1.3,4.4c0.2,1.9,0.1,3.7-0.4,5.6c-0.7,4.2-2.8,8-5.8,10.9c-2.5,2.4-5.8,3.8-9.2,3.9c-2.9,0.2-5.6-1.4-6.8-4.1
		L234.4,64.3z M237.4,50.4c-0.7,3.3-0.7,5.7-0.2,7.1c0.7,2.2,2.8,3.7,5.2,3.6c2.2-0.1,4.3-1,5.8-2.6c2.1-2.2,3.4-4.9,3.9-7.9
		c0.8-3.6,0.6-6.2-0.5-7.9c-0.9-1.6-2.7-2.6-4.6-2.6c-2.2,0.1-4.3,1-5.8,2.6C239.2,44.8,237.8,47.5,237.4,50.4L237.4,50.4z"/>
	<path class="st2" d="M133.7,81.9V70h2.4v11.9H133.7z"/>
	<path class="st2" d="M141.1,81.9v-9.9h-3.5v-2h9.5v2h-3.5v9.9H141.1z"/>
	<path class="st2" d="M152.6,78l2.4-0.2c0.1,0.7,0.4,1.3,0.9,1.7c1.1,0.7,2.4,0.7,3.5,0c0.4-0.3,0.6-0.7,0.6-1.2
		c0-0.3-0.1-0.5-0.2-0.7c-0.2-0.2-0.5-0.4-0.9-0.5c-0.3-0.1-0.9-0.3-1.9-0.5c-1-0.2-1.9-0.6-2.7-1.2c-1.2-1-1.4-2.8-0.6-4.1
		c0.4-0.5,0.9-1,1.5-1.2c0.7-0.3,1.5-0.4,2.4-0.4c1.2-0.1,2.4,0.3,3.4,1c0.8,0.7,1.2,1.7,1.2,2.7l-2.4,0.1c0-0.5-0.3-1-0.7-1.3
		c-0.4-0.3-0.9-0.4-1.5-0.4c-0.6,0-1.2,0.1-1.7,0.4c-0.2,0.2-0.4,0.5-0.4,0.7c0,0.3,0.1,0.6,0.4,0.7c0.7,0.4,1.4,0.7,2.2,0.8
		c0.9,0.2,1.8,0.5,2.6,0.9c0.5,0.3,1,0.7,1.3,1.2c0.3,0.6,0.5,1.2,0.5,1.9c0,1.4-0.9,2.7-2.2,3.3c-0.8,0.3-1.7,0.5-2.6,0.4
		c-1.2,0.1-2.5-0.3-3.5-1.1C153.2,80.3,152.7,79.2,152.6,78z"/>
	<path class="st2" d="M163.3,73.3h2.4l2.1,6.2l2-6.2h2.4l-3.1,8.3l-0.6,1.5c-0.1,0.4-0.3,0.8-0.6,1.2c-0.3,0.5-0.9,0.9-1.5,1
		c-0.4,0.1-0.8,0.2-1.2,0.1c-0.4,0-0.9,0-1.3-0.1l-0.2-1.8c0.3,0.1,0.7,0.1,1,0.1c0.4,0,0.9-0.1,1.2-0.5c0.3-0.4,0.5-0.8,0.6-1.2
		L163.3,73.3z"/>
	<path class="st2" d="M172.9,79.5l2.3-0.4c0.1,0.4,0.3,0.8,0.6,1c0.4,0.3,0.8,0.4,1.3,0.4c0.5,0,0.9-0.1,1.3-0.3
		c0.2-0.1,0.3-0.4,0.3-0.6c0-0.2-0.1-0.3-0.2-0.4c-0.2-0.2-0.5-0.3-0.8-0.3c-1.2-0.2-2.4-0.6-3.5-1.1c-0.7-0.4-1.1-1.2-1-1.9
		c0-0.7,0.3-1.4,0.9-1.9c0.8-0.6,1.8-0.8,2.8-0.8c0.9-0.1,1.8,0.1,2.6,0.6c0.6,0.4,1,1,1.2,1.7l-2.2,0.4c-0.1-0.3-0.3-0.6-0.5-0.8
		c-0.3-0.2-0.7-0.3-1.1-0.3c-0.4,0-0.9,0-1.3,0.2c-0.2,0.1-0.3,0.3-0.3,0.5c0,0.2,0.1,0.3,0.2,0.4c0.7,0.3,1.4,0.5,2.1,0.6
		c0.9,0.2,1.8,0.5,2.6,1c0.5,0.4,0.8,1.1,0.7,1.7c0,0.8-0.4,1.6-1,2c-0.8,0.6-1.9,0.9-2.9,0.8c-1,0.1-2-0.2-2.8-0.7
		C173.6,81,173.1,80.3,172.9,79.5z"/>
	<path class="st2" d="M186.9,73.3v1.8h-1.6v3.5c0,0.4,0,0.8,0,1.2c0,0.1,0.1,0.2,0.2,0.3c0.1,0.1,0.3,0.1,0.4,0.1
		c0.3,0,0.6-0.1,0.9-0.2l0.2,1.8c-0.6,0.2-1.2,0.4-1.8,0.3c-0.4,0-0.8-0.1-1.1-0.2c-0.3-0.1-0.6-0.3-0.7-0.5
		c-0.2-0.3-0.3-0.6-0.3-0.9c-0.1-0.5-0.1-1.1-0.1-1.6v-3.8h-1.1v-1.8h1.1v-1.7l2.3-1.4v3.1L186.9,73.3z"/>
	<path class="st2" d="M193.5,79.2l2.3,0.4c-0.3,0.8-0.8,1.5-1.5,1.9c-0.7,0.4-1.5,0.7-2.4,0.6c-1.3,0.1-2.5-0.4-3.3-1.5
		c-0.6-0.9-0.9-1.9-0.9-2.9c-0.1-1.2,0.3-2.4,1.1-3.4c0.7-0.8,1.8-1.2,2.9-1.2c1.2-0.1,2.3,0.4,3.1,1.3c0.8,1.1,1.2,2.5,1.1,3.9
		h-5.7c0,0.6,0.2,1.1,0.6,1.6c0.3,0.4,0.8,0.6,1.3,0.6c0.3,0,0.7-0.1,0.9-0.3C193.2,79.9,193.5,79.6,193.5,79.2z M193.7,76.9
		c0-0.5-0.2-1.1-0.5-1.5c-0.6-0.7-1.7-0.7-2.4-0.1c0,0,0,0-0.1,0.1c-0.3,0.4-0.5,0.9-0.5,1.5H193.7z"/>
	<path class="st2" d="M197.7,73.3h2.1v1.2c0.6-0.9,1.6-1.4,2.7-1.4c0.5,0,1,0.1,1.5,0.3c0.4,0.3,0.8,0.6,1,1c0.3-0.4,0.8-0.8,1.2-1
		c0.5-0.2,1-0.3,1.5-0.3c0.6,0,1.1,0.1,1.6,0.4c0.4,0.3,0.8,0.6,1,1.1c0.2,0.6,0.3,1.2,0.2,1.8v5.5h-2.3V77c0.1-0.6,0-1.1-0.2-1.7
		c-0.2-0.3-0.6-0.5-1-0.5c-0.3,0-0.6,0.1-0.9,0.3c-0.3,0.2-0.5,0.5-0.6,0.9c-0.1,0.6-0.2,1.2-0.2,1.8v4.1h-2.3v-4.7
		c0-0.5,0-1.1-0.1-1.6c-0.1-0.2-0.2-0.4-0.4-0.6c-0.2-0.1-0.4-0.2-0.7-0.2c-0.3,0-0.7,0.1-1,0.3c-0.3,0.2-0.5,0.5-0.6,0.8
		c-0.2,0.6-0.2,1.2-0.2,1.8v4.2h-2.3L197.7,73.3z"/>
	<path class="st2" d="M215,70v4.4c0.6-0.8,1.6-1.3,2.6-1.3c0.5,0,1,0.1,1.5,0.3c0.4,0.2,0.7,0.4,1,0.7c0.2,0.3,0.4,0.6,0.4,1
		c0.1,0.6,0.1,1.1,0.1,1.7v5h-2.3v-4.5c0-0.6,0-1.2-0.1-1.7c-0.1-0.2-0.3-0.4-0.5-0.6c-0.2-0.2-0.5-0.2-0.8-0.2
		c-0.4,0-0.7,0.1-1,0.3c-0.3,0.2-0.5,0.5-0.7,0.8c-0.2,0.5-0.2,1.1-0.2,1.7V82h-2.3V70H215z"/>
	<path class="st2" d="M224.6,75.9l-2.1-0.4c0.2-0.7,0.6-1.4,1.2-1.9c0.8-0.4,1.7-0.6,2.5-0.6c0.8,0,1.6,0.1,2.3,0.4
		c0.4,0.2,0.8,0.5,1.1,0.9c0.3,0.7,0.4,1.4,0.3,2v2.7c0,0.6,0,1.1,0.1,1.7c0.1,0.4,0.2,0.8,0.4,1.2h-2.3c0-0.1-0.1-0.4-0.2-0.7
		l-0.1-0.3c-0.4,0.4-0.8,0.7-1.3,0.9c-0.5,0.2-1,0.3-1.5,0.3c-0.8,0.1-1.5-0.2-2.1-0.7c-0.5-0.5-0.8-1.1-0.8-1.8
		c0-0.5,0.1-0.9,0.4-1.3c0.2-0.4,0.6-0.7,1-0.9c0.6-0.3,1.2-0.4,1.8-0.5c0.8-0.1,1.5-0.3,2.2-0.6V76c0-0.3-0.1-0.7-0.3-1
		c-0.4-0.2-0.8-0.3-1.2-0.3c-0.3,0-0.7,0.1-1,0.2C224.9,75.3,224.7,75.6,224.6,75.9z M227.7,77.8c-0.5,0.1-1,0.3-1.5,0.4
		c-0.4,0.1-0.9,0.2-1.3,0.4c-0.3,0.2-0.4,0.5-0.5,0.8c0,0.3,0.1,0.6,0.4,0.8c0.2,0.2,0.6,0.4,0.9,0.4c0.4,0,0.8-0.1,1.2-0.4
		c0.3-0.2,0.5-0.5,0.6-0.8c0.1-0.4,0.1-0.7,0.1-1.1L227.7,77.8z"/>
	<path class="st2" d="M238,81.9v-1.3c-0.3,0.5-0.7,0.8-1.2,1.1c-0.5,0.3-1.1,0.4-1.6,0.4c-0.5,0-1.1-0.1-1.6-0.4
		c-0.4-0.2-0.8-0.6-1-1.1c-0.2-0.6-0.4-1.3-0.3-1.9v-5.4h2.3v4c0,0.7,0,1.5,0.1,2.2c0.1,0.3,0.2,0.5,0.5,0.7
		c0.3,0.2,0.5,0.2,0.8,0.2c0.4,0,0.7-0.1,1.1-0.3c0.3-0.2,0.5-0.5,0.6-0.8c0.2-0.8,0.2-1.6,0.2-2.3v-3.7h2.3v8.6H238z"/>
	<path class="st2" d="M241.6,79.5l2.3-0.4c0.1,0.4,0.3,0.8,0.6,1c0.4,0.3,0.8,0.4,1.3,0.4c0.5,0,0.9-0.1,1.3-0.3
		c0.2-0.1,0.3-0.4,0.3-0.6c0-0.2-0.1-0.3-0.2-0.4c-0.2-0.2-0.5-0.3-0.8-0.3c-1.2-0.2-2.4-0.6-3.5-1.1c-0.7-0.4-1.1-1.2-1-1.9
		c0-0.7,0.3-1.4,0.9-1.9c0.8-0.6,1.8-0.8,2.8-0.8c0.9-0.1,1.8,0.1,2.6,0.6c0.6,0.4,1,1,1.2,1.7l-2.1,0.4c-0.1-0.3-0.3-0.6-0.5-0.8
		c-0.3-0.2-0.7-0.3-1.1-0.3c-0.4,0-0.9,0-1.3,0.2c-0.2,0.1-0.3,0.3-0.3,0.5c0,0.2,0.1,0.3,0.2,0.4c0.7,0.3,1.4,0.5,2.1,0.6
		c0.9,0.2,1.8,0.5,2.6,1c0.5,0.4,0.8,1.1,0.7,1.7c0,0.8-0.4,1.6-1,2c-0.8,0.6-1.9,0.9-2.9,0.8c-1,0.1-2-0.2-2.8-0.7
		C242.3,81,241.8,80.3,241.6,79.5z"/>
</g>
</svg>
