<svg id="Ebene_1" data-name="Ebene 1" xmlns="http://www.w3.org/2000/svg" viewBox="0 0 120 100"><defs><style>.cls-1{fill:#dc0d15;}</style></defs><title>raabit_icon_zitat</title><path class="cls-1" d="M0,79.64c17-7.43,25.49-17.78,25.49-33.71a9.25,9.25,0,0,1-2.66.26C10.09,46.19,0,37.7,0,24.42,0,9.56,9.56,0,22.83,0,41.42,0,51,14.34,51,38.76,51,65.31,37.7,86,9.56,99.29Zm69,0c17-7.43,25.48-17.78,25.48-33.71a9.15,9.15,0,0,1-2.65.26C79.11,46.19,69,37.7,69,24.42,69,9.56,78.58,0,91.86,0,110.44,0,120,14.34,120,38.76,120,65.31,106.73,86,78.58,99.29Z"/></svg>