<svg id="Ebene_1" data-name="Ebene 1" xmlns="http://www.w3.org/2000/svg" xmlns:xlink="http://www.w3.org/1999/xlink" viewBox="0 0 40 40"><defs><style>.cls-1{fill:url(#Unbenannter_Verlauf_19);}.cls-2{fill:url(#Unbenannter_Verlauf_19-2);}</style><radialGradient id="Unbenannter_Verlauf_19" cx="20.53" cy="30.56" r="14.71" gradientUnits="userSpaceOnUse"><stop offset="0" stop-color="#fff"/><stop offset="1" stop-color="#e3e3e2"/></radialGradient><radialGradient id="Unbenannter_Verlauf_19-2" cx="19.6" cy="9.11" r="14.71" xlink:href="#Unbenannter_Verlauf_19"/></defs><title>raabit_sidebar_icon_360</title><path class="cls-1" d="M34.69,22.18l-.13.6A14.74,14.74,0,0,1,9.81,30.37l3.38-1.95L1.68,21.77v13.3l3.87-2.24a19.53,19.53,0,0,0,33.7-9.12l.13-.61Z"/><path class="cls-2" d="M5.57,16.89A14.74,14.74,0,0,1,30.32,9.3l-3.38,1.95L38.45,17.9V4.6L34.58,6.84A19.53,19.53,0,0,0,.88,16l-.13.61,4.7.92Z"/></svg>