<svg id="Ebene_1" data-name="Ebene 1" xmlns="http://www.w3.org/2000/svg" xmlns:xlink="http://www.w3.org/1999/xlink" viewBox="0 0 40 30"><defs><style>.cls-1{fill:url(#Unbenannter_Verlauf_19);}</style><radialGradient id="Unbenannter_Verlauf_19" cx="3.94" cy="3.19" r="11.89" gradientUnits="userSpaceOnUse"><stop offset="0" stop-color="#fff"/><stop offset="1" stop-color="#e3e3e2"/></radialGradient></defs><title>raabit_icon_telefon_footer</title><path class="cls-1" d="M40,6.47h0C40,2.9,29.64,0,20,0S0,2.9,0,6.47v4.72c0,.69,2.24,1.25,5,1.25.59,0,1.16,0,1.69-.08L5.41,20A36.08,36.08,0,0,0,5,25v2.5A2.51,2.51,0,0,0,7.5,30h25A2.51,2.51,0,0,0,35,27.5V25a37.71,37.71,0,0,0-.41-5l-1.28-7.67c.53.05,1.1.08,1.69.08,2.76,0,5-.56,5-1.25Zm-20,16c-5,0-9-3.36-9-7.5s4-7.5,9-7.5,9,3.36,9,7.5S25,22.5,20,22.5Z"/></svg>