<svg id="Ebene_1" data-name="Ebene 1" xmlns="http://www.w3.org/2000/svg" viewBox="0 0 40 40"><defs><style>.cls-1{fill:#1d1d1b;}</style></defs><title>raabit_kontakt_icon_phone_Zeichenfläche 1</title><path class="cls-1" d="M40,10.47h0C40,6.9,29.64,4,20,4S0,6.9,0,10.47v4.72c0,.69,2.24,1.25,5,1.25.59,0,1.16,0,1.69-.08L5.41,24A36.08,36.08,0,0,0,5,29v2.5A2.51,2.51,0,0,0,7.5,34h25A2.51,2.51,0,0,0,35,31.5V29a37.71,37.71,0,0,0-.41-5l-1.28-7.67c.53.05,1.1.08,1.69.08,2.76,0,5-.56,5-1.25Zm-20,16c-5,0-9-3.36-9-7.5s4-7.5,9-7.5,9,3.36,9,7.5S25,26.5,20,26.5Z"/></svg>