<svg id="Ebene_1" data-name="Ebene 1" xmlns="http://www.w3.org/2000/svg" xmlns:xlink="http://www.w3.org/1999/xlink" viewBox="0 0 40 40"><defs><style>.cls-1{fill:url(#Unbenannter_Verlauf_19);}</style><radialGradient id="Unbenannter_Verlauf_19" cx="19.35" cy="20" r="19.68" gradientUnits="userSpaceOnUse"><stop offset="0" stop-color="#fff"/><stop offset="1" stop-color="#e3e3e2"/></radialGradient></defs><title>raabit_sidebar_icon_mail_Zeichenfläche 1</title><path class="cls-1" d="M0,22.06C0,8.79,9.81,0,21.68,0c10.38,0,17,7.1,17,17.1,0,8.69-6,13-11.12,13-2.76,0-5.05-1.3-5.61-3.55h-.09a7.36,7.36,0,0,1-5.61,3.09c-3.83,0-6.35-2.9-6.35-7.2,0-6,4.3-11.68,9.62-11.68A3.53,3.53,0,0,1,23,13.08h.09l.75-2h4.86L26.45,21.78c-.56,2.33.09,3.45,2,3.45,2.81,0,5.33-3.17,5.33-7.94,0-6.36-3.27-12.52-12.71-12.52-7.85,0-15.7,6.73-15.7,17.1,0,9.25,6.54,13.36,13.55,13.36a17,17,0,0,0,6.91-1.68l1.69,4.3A19.51,19.51,0,0,1,18.22,40C8.79,40,0,34.39,0,22.06Zm20.65.74,1-5.88a2.05,2.05,0,0,0-1.87-1.12c-2.43,0-3.92,3.64-3.92,6.16,0,1.73.75,2.71,2.15,2.71C18.88,24.67,19.63,24.21,20.65,22.8Z"/></svg>