<svg id="Ebene_1" data-name="Ebene 1" xmlns="http://www.w3.org/2000/svg" xmlns:xlink="http://www.w3.org/1999/xlink" viewBox="0 0 150 150"><defs><style>.cls-1{fill:#e00c19;}.cls-2{fill:url(#Unbenannter_Verlauf_2);}</style><linearGradient id="Unbenannter_Verlauf_2" x1="43.34" y1="75" x2="106.66" y2="75" gradientUnits="userSpaceOnUse"><stop offset="0" stop-color="#fff"/><stop offset="1" stop-color="#e1e0de"/></linearGradient></defs><title>raabit_support_icon_phone</title><circle class="cls-1" cx="75" cy="75" r="75"/><path class="cls-2" d="M106.61,61.5h0c0-5.66-16.35-10.24-31.63-10.24S43.34,55.84,43.34,61.5V69c0,1.09,3.55,2,7.92,2,.94,0,1.84,0,2.67-.11L51.91,83a57.46,57.46,0,0,0-.65,7.86v4a4,4,0,0,0,4,3.95H94.79a4,4,0,0,0,3.95-3.95v-4A57.46,57.46,0,0,0,98.09,83l-2-12.14c.83.07,1.73.11,2.67.11,4.37,0,7.92-.88,7.92-2ZM75,86.87c-7.87,0-14.25-5.31-14.25-11.87S67.13,63.13,75,63.13,89.25,68.44,89.25,75,82.87,86.87,75,86.87Z"/></svg>