<svg id="Ebene_1" data-name="Ebene 1" xmlns="http://www.w3.org/2000/svg" viewBox="0 0 70 79"><defs><style>.cls-1{fill:#fff;}</style></defs><title>raabit_support_icon_clock</title><path class="cls-1" d="M51.81,42.64l-15,.1-.11-15.91a1.92,1.92,0,0,0-1.92-1.9h0a1.91,1.91,0,0,0-1.9,1.92l.11,17S33,44,33,44a2.15,2.15,0,0,0-.12.67v0a1.92,1.92,0,0,0,1.93,1.9l17-.12a1.9,1.9,0,0,0,1.9-1.91h0A1.91,1.91,0,0,0,51.81,42.64Z"/><path class="cls-1" d="M63.32,23.54l5.36-6.39a1.91,1.91,0,0,0-.23-2.69L58.14,5.82a1.93,1.93,0,0,0-2.7.23L50,12.49a34.52,34.52,0,0,0-6.6-2.36V1.91A1.92,1.92,0,0,0,41.51,0H28.05a1.91,1.91,0,0,0-1.91,1.91v8.33a35,35,0,1,0,37.18,13.3ZM35,71.88A27.83,27.83,0,1,1,62.87,44.05,27.85,27.85,0,0,1,35,71.88Z"/></svg>